<svg height="512pt" viewBox="0 -64 512 511" width="512pt" xmlns="http://www.w3.org/2000/svg"><path d="m455.308594.5h-29.90625c-4.203125 0-7.605469 3.40625-7.605469 7.605469s3.402344 7.601562 7.605469 7.601562h29.90625c22.234375 0 40.433594 17.582031 41.433594 39.574219l-188.171876 156.671875c-30.457031 25.371094-74.679687 25.371094-105.148437-.003906l-188.164063-156.675781c1.003907-21.984376 19.203126-39.566407 41.433594-39.566407h338.292969c4.199219 0 7.605469-3.402343 7.605469-7.601562s-3.40625-7.605469-7.605469-7.605469h-338.292969c-31.257812 0-56.691406 25.433594-56.691406 56.691406v181.402344c0 4.199219 3.40625 7.601562 7.605469 7.601562s7.601562-3.402343 7.601562-7.601562v-163.570312l178.484375 148.613281c18.054688 15.035156 40.179688 22.550781 62.3125 22.550781 22.121094 0 44.253906-7.515625 62.300782-22.550781l178.488281-148.609375v253.144531c0 22.105469-17.984375 40.089844-40.09375 40.089844h-401.398438c-22.109375 0-40.09375-17.984375-40.09375-40.089844v-59.160156c0-4.199219-3.402343-7.605469-7.601562-7.605469s-7.605469 3.40625-7.605469 7.605469v59.160156c0 30.492187 24.808594 55.296875 55.300781 55.296875h401.398438c30.492187 0 55.300781-24.804688 55.300781-55.296875v-270.980469c0-31.257812-25.433594-56.691406-56.691406-56.691406zm0 0"/><path d="m453.230469 343.152344c1.421875 1.183594 3.148437 1.757812 4.863281 1.757812 2.179688 0 4.34375-.929687 5.847656-2.738281 2.683594-3.226563 2.246094-8.023437-.980468-10.707031l-121.246094-100.949219c-3.226563-2.6875-8.023438-2.25-10.710938.976563-2.6875 3.226562-2.25 8.023437.980469 10.710937zm0 0"/><path d="m53.914062 344.910156c1.714844 0 3.441407-.574218 4.859376-1.757812l121.25-100.953125c3.226562-2.683594 3.664062-7.480469.976562-10.707031-2.683594-3.230469-7.480469-3.667969-10.707031-.980469l-121.246094 100.953125c-3.230469 2.6875-3.667969 7.480468-.980469 10.707031 1.503906 1.808594 3.667969 2.738281 5.847656 2.738281zm0 0"/></svg>