<?xml version="1.0" encoding="iso-8859-1"?>
<!-- Generator: Adobe Illustrator 19.0.0, SVG Export Plug-In . SVG Version: 6.00 Build 0)  -->
<svg version="1.1" id="Layer_1" xmlns="http://www.w3.org/2000/svg" xmlns:xlink="http://www.w3.org/1999/xlink" x="0px" y="0px"
	 viewBox="0 0 512 512" style="enable-background:new 0 0 512 512;" xml:space="preserve">
<g>
	<g>
		<path d="M437.019,74.981C388.667,26.629,324.38,0,256,0C196.696,0,138.885,20.747,93.213,58.417
			c-3.672,3.027-4.193,8.458-1.165,12.129c3.029,3.672,8.461,4.191,12.13,1.164C146.77,36.58,200.688,17.232,256,17.232
			c131.657,0,238.767,107.11,238.766,238.768c0,59.105-21.769,115.828-61.299,159.722c-3.183,3.536-2.899,8.984,0.638,12.168
			c1.647,1.483,3.708,2.214,5.764,2.214c2.356,0,4.704-0.962,6.405-2.851c42.385-47.062,65.727-107.882,65.727-171.254
			C511.999,187.62,485.371,123.333,437.019,74.981z"/>
	</g>
</g>
<g>
	<g>
		<path d="M421.677,439.89c-3.063-3.642-8.497-4.114-12.14-1.051c-42.901,36.065-97.429,55.927-153.538,55.927
			c-131.657,0-238.767-107.11-238.767-238.767c0-59.932,22.307-117.247,62.813-161.384c3.218-3.506,2.985-8.956-0.522-12.174
			c-3.507-3.218-8.959-2.982-12.174,0.523c-43.432,47.325-67.35,108.777-67.35,173.036c0,68.381,26.629,132.668,74.981,181.02
			C123.333,485.371,187.621,512,256,512c60.16,0,118.625-21.297,164.626-59.97C424.269,448.968,424.739,443.533,421.677,439.89z"/>
	</g>
</g>
<g>
	<g>
		<path d="M289.368,189.061h-66.735c-4.76,0-8.616,3.858-8.616,8.616v225.799c0,4.758,3.857,8.616,8.616,8.616h66.735
			c4.76,0,8.616-3.858,8.616-8.617V197.677C297.984,192.918,294.127,189.061,289.368,189.061z M280.753,414.86H231.25V206.293
			h49.503V414.86z"/>
	</g>
</g>
<g>
	<g>
		<path d="M256,78.701c-26.429,0-47.93,21.502-47.93,47.93c0,26.429,21.501,47.93,47.93,47.93s47.93-21.502,47.93-47.93
			C303.93,100.202,282.429,78.701,256,78.701z M256,157.329c-16.927,0-30.698-13.771-30.698-30.698
			c0-16.927,13.772-30.698,30.698-30.698c16.927,0,30.698,13.771,30.698,30.698C286.698,143.558,272.927,157.329,256,157.329z"/>
	</g>
</g>
<g>
</g>
<g>
</g>
<g>
</g>
<g>
</g>
<g>
</g>
<g>
</g>
<g>
</g>
<g>
</g>
<g>
</g>
<g>
</g>
<g>
</g>
<g>
</g>
<g>
</g>
<g>
</g>
<g>
</g>
</svg>
